<?xml version="1.0" encoding="utf-8"?>
<!-- Generator: Adobe Illustrator 27.6.1, SVG Export Plug-In . SVG Version: 6.00 Build 0)  -->
<svg version="1.1" id="Layer_1" xmlns="http://www.w3.org/2000/svg" xmlns:xlink="http://www.w3.org/1999/xlink" x="0px" y="0px"
	 viewBox="0 0 2000 880" style="enable-background:new 0 0 2000 880;" xml:space="preserve">
<style type="text/css">
	.st0{fill:#FFFFFF;}
</style>
<rect class="st0" width="2000" height="880"/>
<g>
	<g>
		<path d="M1909.63,53.97c-2.31-1.23-4.77-0.72-7.12-0.72c-40.21-0.04-80.42-0.03-120.63-0.03c-1.22,0-2.44,0.06-3.65-0.02
			c-1.33-0.09-3.13,0.49-3.79-0.99c-0.82-1.83,1.1-2.69,2.14-3.72c14.12-14.17,28.32-28.26,42.38-42.49
			c2.28-2.31,4.68-3.17,7.85-3.17c54.66,0.06,109.31,0.1,163.97-0.05c5.16-0.01,6.44,1.88,6.43,6.72
			c-0.13,54.28-0.11,108.56-0.01,162.85c0.01,3.61-1.17,6.07-3.73,8.6c-13.99,13.8-27.77,27.82-41.67,41.72
			c-1.14,1.14-2.05,3.48-4.02,2.6c-1.86-0.83-1.02-3.12-1.02-4.76c-0.04-41.06-0.02-82.12-0.06-123.18c0-2.01,0.57-4.14-0.69-6.14
			c-2.38,0.33-3.38,2.36-4.72,3.8c-41.97,45.29-83.89,90.64-125.83,135.96c-32.02,34.6-64.1,69.14-96.1,103.75
			c-40.15,43.43-80.05,87.09-120.45,130.28c-21.61,23.1-48.4,35.79-80.42,36.43c-7.12,0.14-7.14,0.06-7.14,7.26
			c0,87.86,0,175.72,0,263.58c0,8.73-0.01,8.74-8.48,8.74c-35.33,0-70.67,0.01-106,0c-8.11,0-8.12-0.02-8.12-7.97
			c0-87.86,0-175.72,0-263.58c0-7.93,0-7.93-7.94-7.93c-59.36,0-118.71,0-178.07,0c-7.5,0-7.52,0.01-7.52,7.41
			c0,88.03,0,176.06,0,264.1c0,7.96-0.01,7.98-8.12,7.98c-35.34,0.01-70.67,0.01-106,0c-8.42,0-8.45-0.02-8.45-8.38
			c-0.01-87.51,0-175.03-0.01-262.54c0-8.56,0-8.57-8.49-8.57c-9.05,0-18.1-0.06-27.15,0.01c-12.69,0.11-11.22-1.69-11.22,10.96
			c-0.04,86.29-0.02,172.59-0.02,258.88c0,1.91-0.04,3.83-0.05,5.74c-0.01,2.59-1.36,3.8-3.89,3.83c-1.04,0.01-2.09,0.05-3.13,0.05
			c-36.38,0-72.76-0.1-109.14,0.11c-5.33,0.03-6.67-1.57-6.66-6.82c0.16-88.38,0.12-176.76,0.12-265.15c0-7.61-0.01-7.62-7.81-7.62
			c-59.53,0-119.06,0.06-178.59-0.11c-5.17-0.01-6.63,1.13-6.62,6.59c0.21,88.56,0.15,177.11,0.14,265.67
			c0,7.05-0.31,7.33-7.38,7.33c-36.21,0.01-72.41,0.01-108.62,0c-7.15,0-7.25-0.1-7.25-7.35c-0.01-88.03,0-176.07-0.01-264.1
			c0-8.02-0.01-8.02-7.93-8.02c-115.75,0-231.5,0-347.26,0c-7.8,0-7.81,0.01-7.81,8.07c0,87.86,0,175.72,0,263.58
			c0,7.81-0.01,7.83-7.73,7.83c-35.86,0.01-71.71,0.01-107.57,0c-7.18,0-7.3-0.11-7.3-7.31c0-152.06-0.41-304.12,0.15-456.18
			c0.36-98.51,67.29-184.01,161.78-209.63c19.28-5.23,38.86-7.74,58.77-7.76c69.8-0.07,139.6-0.03,209.4-0.03
			c8.6,0,8.62,0.01,8.62,8.73c0.01,35.49,0.01,70.98,0,106.48c0,7.23-0.12,7.34-7.23,7.34c-70.67,0.01-141.34-0.04-212.01,0.02
			c-44.71,0.04-83.56,30.63-93.92,73.93c-1.9,7.95-2.95,16.06-2.95,24.28c0.01,20.53,0.17,41.06-0.11,61.59
			c-0.07,5.21,1.32,6.84,6.7,6.83c116.62-0.15,233.25-0.15,349.87,0c5.49,0.01,6.65-1.89,6.64-6.95
			c-0.13-90.47-0.1-180.94-0.09-271.41c0-11.91-1.02-10.81,11.09-10.82c34.64-0.02,69.28-0.01,103.92-0.01
			c8.15,0,8.25,0.08,8.25,8.04c0.01,91.69,0.05,183.38-0.12,275.06c-0.01,4.89,1.3,6.08,6.04,6.07c60.05-0.15,120.1-0.09,180.16-0.1
			c6.78,0,6.79-0.02,6.79-7c0-91.51,0-183.03,0-274.54c0-7.51-0.01-7.52,7.3-7.53c35.86-0.01,71.71-0.01,107.57,0
			c7.87,0,7.89,0.02,7.89,7.76c0.01,90.99,0,181.98,0,272.98c0,8.33,0.01,8.34,8.17,8.34c11.14,0,22.29-0.21,33.42,0.1
			c4.5,0.12,5.39-1.41,5.39-5.65c-0.12-91.17-0.1-182.33-0.1-273.5c0-10.03,0-10.04,9.92-10.04c68.76,0,137.51-0.08,206.27,0.02
			c64.22,0.1,118.93,23.06,163.15,69.65c31.71,33.4,50.36,73.51,57.16,118.97c2.03,13.56,2.43,27.34,2.27,41.1
			c-0.2,17.92,0.03,35.84-0.1,53.76c-0.03,4.38,1.11,5.5,5.79,4.91c17.81-2.25,31.59-11.58,44.55-23.19
			c57.4-51.41,115.01-102.59,172.52-153.88c46.73-41.68,93.43-83.41,140.14-125.11c10.77-9.61,21.58-19.19,32.34-28.82
			C1907.71,56.49,1909.19,55.75,1909.63,53.97z M1291.54,389.15c20.18,0,40.36,0,60.54,0c10.61,0,21.22-0.06,31.83,0.03
			c3.11,0.03,4.91-0.73,4.83-4.35c-0.55-25.36,1.36-50.78-0.99-76.09c-4.45-47.81-46.35-85.87-94.46-86.08
			c-30.62-0.14-61.23,0.08-91.85-0.14c-5.18-0.04-6.37,1.73-6.35,6.6c0.15,51.12,0.17,102.24-0.02,153.35
			c-0.02,5.23,1.36,6.84,6.71,6.8C1231.7,389.02,1261.62,389.15,1291.54,389.15z"/>
		<path d="M1000.51,878.17c-322.7,0-645.4-0.05-968.1,0.16c-13.59,0.01-24.16-8.37-27.28-18.46c-0.94-3.05-1.21-6.11-1.21-9.26
			C3.93,577.3,3.92,303.98,3.93,30.67c0-16.98,11.02-27.78,28.3-27.79c190.77-0.01,381.53,0,572.3,0c387.1,0,774.2,0,1161.31,0.05
			c2.46,0,6.16-1.45,7.15,1.09c0.96,2.45-2.7,4.01-4.45,5.78c-12.96,13.12-26.1,26.06-39.04,39.21c-2.89,2.94-5.91,4.66-10.09,4.25
			c-2.07-0.2-4.17-0.03-6.26-0.03c-549.5,0-1098.99,0-1648.49,0c-11.34,0-10.3-0.81-10.3,10.53
			c-0.01,251.39-0.01,502.79-0.01,754.18c0,9.88,0,9.89,9.92,9.89c624.17,0,1248.33,0,1872.5,0c9.96,0,9.96,0,9.96-9.85
			c0-178.32,0.03-356.65-0.11-534.97c0-5.87,1.65-10.08,5.88-14.16c13.27-12.8,26.16-26,39.23-39.02c1.19-1.18,2.32-3.36,4.09-2.72
			c2.24,0.81,1.25,3.34,1.26,5.11c0.09,10.09,0.05,20.18,0.05,30.27c0,195.89-0.06,391.79,0.15,587.68
			c0.01,11.97-7.32,22.93-17.87,26.72c-2.71,0.97-5.38,1.27-8.17,1.27c-20.71,0-41.43,0-62.14,0
			C1606.23,878.17,1303.37,878.17,1000.51,878.17z"/>
	</g>
</g>
</svg>
